<svg width="52" height="45" viewBox="0 0 52 45" fill="none" xmlns="http://www.w3.org/2000/svg">
<path d="M25.6431 19.3788C25.0347 19.3822 24.4411 19.5571 23.9371 19.8813C23.433 20.2055 23.0411 20.6646 22.8108 21.2006C22.5806 21.7366 22.5222 22.3255 22.6431 22.893C22.764 23.4606 23.0587 23.9813 23.4902 24.3896C23.9216 24.7978 24.4704 25.0753 25.0673 25.187C25.6642 25.2987 26.2825 25.2396 26.8442 25.0172C27.4059 24.7948 27.8858 24.419 28.2234 23.9373C28.561 23.4556 28.7411 22.8894 28.7411 22.3103C28.7386 21.5305 28.4108 20.7836 27.8298 20.2338C27.2489 19.6841 26.4623 19.3765 25.6431 19.3788ZM15.6719 19.3788C15.0635 19.3822 14.4699 19.5571 13.9659 19.8813C13.4618 20.2055 13.0699 20.6646 12.8397 21.2006C12.6094 21.7366 12.551 22.3255 12.6719 22.893C12.7928 23.4606 13.0876 23.9813 13.519 24.3896C13.9504 24.7978 14.4992 25.0753 15.0961 25.187C15.693 25.2987 16.3113 25.2396 16.873 25.0172C17.4347 24.7948 17.9146 24.419 18.2522 23.9373C18.5898 23.4556 18.7699 22.8894 18.7699 22.3103C18.7674 21.5306 18.4397 20.7837 17.8588 20.2339C17.2779 19.6842 16.4914 19.3766 15.6722 19.3788H15.6719ZM35.6163 19.3788C35.008 19.3822 34.4144 19.5571 33.9103 19.8813C33.4063 20.2055 33.0144 20.6646 32.7841 21.2006C32.5538 21.7366 32.4954 22.3255 32.6163 22.893C32.7372 23.4606 33.032 23.9813 33.4634 24.3896C33.8949 24.7978 34.4437 25.0753 35.0406 25.187C35.6375 25.2987 36.2558 25.2396 36.8175 25.0172C37.3791 24.7948 37.859 24.419 38.1966 23.9373C38.5342 23.4556 38.7144 22.8894 38.7144 22.3103C38.7132 21.9242 38.6321 21.5421 38.4757 21.1858C38.3194 20.8295 38.0908 20.506 37.8032 20.2338C37.5155 19.9615 37.1743 19.7459 36.7991 19.5992C36.4238 19.4525 36.0219 19.3776 35.6163 19.3788ZM49.5017 14.6248C48.0992 12.5475 46.1334 10.7086 43.6624 9.15761C38.888 6.16553 32.6148 4.51699 25.9981 4.51699C23.8177 4.5146 21.6415 4.69742 19.4952 5.06329C18.1543 3.83581 16.6519 2.77891 15.0256 1.91901C8.99926 -0.945457 3.68867 0.121114 1.00525 1.0415C0.801975 1.10992 0.619949 1.22574 0.475811 1.37838C0.331673 1.53102 0.23002 1.71561 0.180141 1.91529C0.130262 2.11496 0.133748 2.32335 0.190281 2.52142C0.246814 2.71948 0.35459 2.9009 0.50376 3.04909C2.39616 4.91187 5.527 8.59361 4.75765 11.941C1.76566 14.8543 0.143372 18.3671 0.143372 22.0247C0.143372 25.752 1.76566 29.2648 4.75765 32.178C5.52736 35.5258 2.39652 39.2091 0.504122 41.0718C0.355227 41.2199 0.247685 41.4012 0.191312 41.5991C0.134939 41.797 0.131532 42.0052 0.1814 42.2046C0.231269 42.4041 0.332825 42.5885 0.476799 42.7409C0.620772 42.8934 0.802576 43.0092 1.00561 43.0776C3.68903 43.9979 8.99962 45.0668 15.0279 42.201C16.6542 41.341 18.1565 40.284 19.4976 39.0566C21.6437 39.4226 23.8198 39.6056 26 39.6033C32.6185 39.6033 38.8917 37.9568 43.6644 34.9648C46.1354 33.4137 48.1011 31.5766 49.5035 29.4976C51.0661 27.1839 51.857 24.6923 51.857 22.0962C51.855 19.4303 51.0642 16.9407 49.5017 14.6251V14.6248ZM25.728 35.2858C23.0026 35.2935 20.2878 34.9612 17.653 34.2975L15.8358 35.9641C14.8272 36.8852 13.7008 37.6816 12.4831 38.3347C11.0012 39.0411 9.39247 39.4746 7.74151 39.6126C7.83025 39.4604 7.91132 39.3064 7.99808 39.1523C9.81916 35.9623 10.3104 33.0955 9.47187 30.5518C6.49342 28.3207 4.70718 25.4643 4.70718 22.3534C4.70718 15.212 14.119 9.42247 25.728 9.42247C37.337 9.42247 46.7507 15.2123 46.7507 22.3534C46.7507 29.4958 37.3389 35.2858 25.728 35.2858Z" fill="#FF7533"/>
</svg>
