<svg width="70" height="70" viewBox="0 0 70 70" fill="none" xmlns="http://www.w3.org/2000/svg">
<circle cx="35" cy="35" r="35" fill="#FF7533"/>
<path d="M54.5938 13H42.8438C40.4111 13 38.4375 15.1116 38.4375 17.7143V30.2857C38.4375 32.8884 40.4111 35 42.8438 35H50.1875V41.2857C50.1875 44.7527 47.5529 47.5714 44.3125 47.5714H43.5781C42.3572 47.5714 41.375 48.6223 41.375 49.9286V54.6429C41.375 55.9491 42.3572 57 43.5781 57H44.3125C52.4273 57 59 49.9679 59 41.2857V17.7143C59 15.1116 57.0264 13 54.5938 13ZM28.1562 13H16.4062C13.9736 13 12 15.1116 12 17.7143V30.2857C12 32.8884 13.9736 35 16.4062 35H23.75V41.2857C23.75 44.7527 21.1154 47.5714 17.875 47.5714H17.1406C15.9197 47.5714 14.9375 48.6223 14.9375 49.9286V54.6429C14.9375 55.9491 15.9197 57 17.1406 57H17.875C25.9898 57 32.5625 49.9679 32.5625 41.2857V17.7143C32.5625 15.1116 30.5889 13 28.1562 13Z" fill="#FCFDFD"/>
</svg>
