<svg width="42" height="38" viewBox="0 0 42 38" fill="none" xmlns="http://www.w3.org/2000/svg">
<path d="M37.5 0.0600585L4.5 0.0600586C2.01562 0.0600586 1.42498e-09 1.83573 3.18134e-09 4.02434L2.65112e-08 33.0958C2.82676e-08 35.2844 2.01563 37.0601 4.5 37.0601L37.5 37.0601C39.9844 37.0601 42 35.2844 42 33.0958L42 4.02434C42 1.83573 39.9844 0.0600585 37.5 0.0600585ZM22.8563 28.9168C22.8563 32.5176 20.4562 34.1612 16.9594 34.1612C13.8 34.1612 11.9719 32.7241 11.0344 30.9815L14.25 29.2719C14.8687 30.2382 15.4313 31.0558 16.7906 31.0558C18.0844 31.0558 18.9094 30.6098 18.9094 28.8672L18.9094 17.0487L22.8563 17.0487L22.8563 28.9168ZM32.1937 34.1612C28.5281 34.1612 26.1563 32.625 25.0031 30.6098L28.2188 28.9746C29.0625 30.1886 30.1688 31.0889 32.1094 31.0889C33.7406 31.0889 34.7906 30.3703 34.7906 29.371C34.7906 28.1817 33.7219 27.7605 31.9125 27.0585L30.9281 26.6868C28.0781 25.6214 26.1937 24.2752 26.1937 21.4424C26.1937 18.8326 28.4531 16.8505 31.9688 16.8505C34.4813 16.8505 36.2813 17.6185 37.575 19.6337L34.5 21.3681C33.825 20.3027 33.0938 19.8815 31.9594 19.8815C30.8062 19.8815 30.075 20.5257 30.075 21.3681C30.075 22.4087 30.8063 22.8299 32.5031 23.4824L33.4875 23.854C36.8438 25.1176 38.7281 26.4143 38.7281 29.3214C38.7281 32.4433 35.9344 34.1612 32.1937 34.1612Z" fill="#FF7533"/>
</svg>
