<svg width="49" height="53" viewBox="0 0 49 53" fill="none" xmlns="http://www.w3.org/2000/svg">
<path d="M23.0584 14.9373L27.675 16.4176C27.8318 16.4622 27.9721 16.5686 28.0741 16.7202C28.1761 16.8718 28.2341 17.0602 28.239 17.2561C28.239 17.7322 27.8911 18.1256 27.4632 18.1256H24.4348C24.1085 18.1244 23.7853 18.0471 23.4829 17.8979C23.0372 17.6701 22.5233 17.7219 22.1814 18.1049L20.5651 19.9164C20.4903 19.996 20.4258 20.0888 20.3737 20.1918C20.307 20.3249 20.2626 20.4729 20.243 20.6271C20.2235 20.7812 20.2293 20.9386 20.2599 21.0901C20.2906 21.2415 20.3456 21.3841 20.4218 21.5096C20.498 21.635 20.5938 21.7409 20.7038 21.8211C21.5988 22.4748 22.601 22.8812 23.6394 23.0115V24.8438C23.6394 25.7547 24.3055 26.5 25.1171 26.5H26.5947C27.4071 26.5 28.0732 25.7547 28.0732 24.8438V23.0219C30.8744 22.6492 32.9935 19.8129 32.6243 16.5004C32.3563 14.1195 30.7137 12.2252 28.6635 11.5627L24.0469 10.0824C23.8901 10.0378 23.7498 9.93142 23.6478 9.77979C23.5458 9.62817 23.4879 9.43979 23.4829 9.24395C23.4829 8.76777 23.8308 8.37441 24.2587 8.37441H27.2871C27.6146 8.37503 27.939 8.45235 28.2424 8.60215C28.6873 8.82988 29.202 8.77812 29.544 8.39512L31.1603 6.58359C31.2325 6.50566 31.2948 6.41493 31.3449 6.31445C31.4122 6.1813 31.4571 6.03325 31.4771 5.87884C31.4971 5.72443 31.4918 5.56672 31.4614 5.41484C31.431 5.26296 31.3762 5.1199 31.3001 4.99394C31.2241 4.86798 31.1283 4.76161 31.0182 4.68098C30.1228 4.02731 29.1203 3.62093 28.0817 3.49055V1.65625C28.0817 0.745312 27.4164 0 26.604 0H25.1264C24.314 0 23.6488 0.745312 23.6488 1.65625V3.47812C20.8509 3.85078 18.7276 6.68711 19.0968 9.99961C19.3639 12.3805 21.0117 14.2748 23.0584 14.9373ZM48.0862 33.9635C47.0824 32.8559 45.5171 32.9283 44.4623 33.9635L36.602 41.6133C35.6372 42.5552 34.4363 43.0667 33.1993 43.0625H23.1384C22.7774 43.0625 22.4312 42.888 22.176 42.5774C21.9207 42.2668 21.7773 41.8455 21.7773 41.4062C21.7773 40.967 21.9207 40.5457 22.176 40.2351C22.4312 39.9245 22.7774 39.75 23.1384 39.75H29.7983C31.1509 39.75 32.4108 38.6217 32.6268 36.9965C32.6535 36.8098 32.6666 36.6207 32.666 36.4313C32.6646 35.5538 32.3772 34.7129 31.8669 34.093C31.3565 33.4731 30.6649 33.125 29.9438 33.125H16.333C14.0375 33.1257 11.812 34.0866 10.0295 35.8464L6.07383 39.75H1.36108C1.0001 39.75 0.653904 39.9245 0.398652 40.2351C0.143399 40.5457 0 40.967 0 41.4062L0 51.3438C0 51.783 0.143399 52.2043 0.398652 52.5149C0.653904 52.8255 1.0001 53 1.36108 53H31.7107C32.9472 53.0012 34.1473 52.4901 35.1134 51.5508L47.9781 39.0254C48.2876 38.7242 48.5393 38.3444 48.7156 37.9126C48.892 37.4807 48.9887 37.0073 48.9991 36.5252C49.0094 36.0432 48.9332 35.5642 48.7757 35.1217C48.6181 34.6792 48.3831 34.284 48.087 33.9635H48.0862Z" fill="#FF7533"/>
</svg>
