<svg width="57" height="49" viewBox="0 0 57 49" fill="none" xmlns="http://www.w3.org/2000/svg">
<path d="M23.3441 25.0274C23.8706 25.6235 24.7459 25.6235 25.2994 25.0274L26.3011 23.9487C26.8546 23.3527 26.8765 22.3865 26.3499 21.7905L23.3406 18.3847L26.5033 14.978C27.0568 14.3819 27.0786 13.4158 26.5521 12.8197L25.5993 11.7411C25.0728 11.145 24.1975 11.145 23.644 11.7411L18.4772 17.3051C17.9237 17.9012 17.9018 18.8673 18.4283 19.4634L23.3441 25.0274ZM31.6642 23.9497L32.617 25.0284C33.1436 25.6244 34.0188 25.6244 34.5724 25.0284L39.7391 19.4643C40.2927 18.8683 40.3145 17.9021 39.788 17.3061L34.8731 11.742C34.3465 11.146 33.4713 11.146 32.9177 11.742L31.9161 12.8207C31.3626 13.4168 31.3407 14.3829 31.8672 14.979L34.8757 18.3847L31.713 21.7914C31.1595 22.3875 31.1377 23.3536 31.6642 23.9497ZM54.8916 39.7481H33.942C33.8353 41.6374 32.6019 42.8 31.044 42.8H25.7906C24.1757 42.8 22.9752 41.1339 23.0282 39.7481H2.35762C1.59726 39.7481 0.959606 40.4348 0.94061 41.2741L0.906071 42.8C0.830088 46.1571 3.25637 48.9039 6.29781 48.9039H50.537C53.5784 48.9039 56.129 46.1571 56.205 42.8L56.2396 41.2741C56.2586 40.4348 55.652 39.7481 54.8916 39.7481ZM51.5386 4.65111C51.5956 2.13328 49.7759 0.0732422 47.4948 0.0732422L11.5505 0.0732422C9.26937 0.0732422 7.35641 2.13328 7.29942 4.65111L6.57412 36.6962H50.8133L51.5386 4.65111ZM45.4215 30.5924H12.2422L12.7948 6.17707H45.9741L45.4215 30.5924Z" fill="#FF7533"/>
</svg>
