<svg width="38" height="49" viewBox="0 0 38 49" fill="none" xmlns="http://www.w3.org/2000/svg">
<path d="M38 13.5601C38 9.41631 34.4573 6.06006 30.0833 6.06006C25.7094 6.06006 22.1667 9.41631 22.1667 13.5601C22.1667 16.9726 24.5714 19.8507 27.8568 20.7601C27.7974 22.2694 27.4411 23.4319 26.7682 24.2194C25.2443 26.0194 21.8896 26.3194 18.337 26.6288C15.5464 26.8726 12.6568 27.1351 10.2917 28.2132V14.7132C13.5078 13.7569 15.8333 10.9163 15.8333 7.56006C15.8333 3.41631 12.2906 0.0600586 7.91667 0.0600586C3.54271 0.0600586 0 3.41631 0 7.56006C0 10.9163 2.32552 13.7569 5.54167 14.7132V33.3976C2.32552 34.3632 0 37.2038 0 40.5601C0 44.7038 3.54271 48.0601 7.91667 48.0601C12.2906 48.0601 15.8333 44.7038 15.8333 40.5601C15.8333 37.3726 13.7354 34.6444 10.7667 33.5663C11.0734 33.0788 11.5385 32.6476 12.2411 32.3101C13.8443 31.5413 16.2391 31.3351 18.7823 31.1101C22.9583 30.7444 27.6885 30.3226 30.4792 27.0413C31.8646 25.4101 32.5672 23.3101 32.6167 20.6757C35.7438 19.6632 38 16.8601 38 13.5601ZM7.91667 6.06006C8.7875 6.06006 9.5 6.73506 9.5 7.56006C9.5 8.38506 8.7875 9.06006 7.91667 9.06006C7.04583 9.06006 6.33333 8.38506 6.33333 7.56006C6.33333 6.73506 7.04583 6.06006 7.91667 6.06006ZM7.91667 42.0601C7.04583 42.0601 6.33333 41.3851 6.33333 40.5601C6.33333 39.7351 7.04583 39.0601 7.91667 39.0601C8.7875 39.0601 9.5 39.7351 9.5 40.5601C9.5 41.3851 8.7875 42.0601 7.91667 42.0601ZM30.0833 12.0601C30.9542 12.0601 31.6667 12.7351 31.6667 13.5601C31.6667 14.3851 30.9542 15.0601 30.0833 15.0601C29.2125 15.0601 28.5 14.3851 28.5 13.5601C28.5 12.7351 29.2125 12.0601 30.0833 12.0601Z" fill="#FF7533"/>
</svg>
